<?xml version="1.0" encoding="UTF-8" standalone="no"?>
<!DOCTYPE svg PUBLIC "-//W3C//DTD SVG 1.1//EN" "http://www.w3.org/Graphics/SVG/1.1/DTD/svg11.dtd">
<svg width="100%" height="100%" viewBox="0 0 100 200" version="1.1" xmlns="http://www.w3.org/2000/svg" xmlns:xlink="http://www.w3.org/1999/xlink" xml:space="preserve" xmlns:serif="http://www.serif.com/" style="fill-rule:evenodd;clip-rule:evenodd;stroke-linejoin:round;stroke-miterlimit:2;">
    <g style="fill: currentColor;">
        <g transform="matrix(1.14286,2.4248e-16,-2.79919e-16,0.99,12.8571,20.22)">
            <path d="M32.5,172L36,179L29,179L32.5,172Z"/>
        </g>
        <g transform="matrix(1,0,0,1,35.5,121.5)">
            <circle cx="14.5" cy="64.5" r="1.5"/>
        </g>
        <g transform="matrix(1,0,0,1,35.5,115.5)">
            <circle cx="14.5" cy="64.5" r="1.5"/>
        </g>
        <g transform="matrix(1,0,0,1,35.5,109.5)">
            <circle cx="14.5" cy="64.5" r="1.5"/>
        </g>
        <g transform="matrix(1,0,0,1,35.5,103.5)">
            <circle cx="14.5" cy="64.5" r="1.5"/>
        </g>
        <g transform="matrix(1,0,0,1,35.5,97.5)">
            <circle cx="14.5" cy="64.5" r="1.5"/>
        </g>
        <g transform="matrix(1,0,0,1,35.5,91.5)">
            <circle cx="14.5" cy="64.5" r="1.5"/>
        </g>
        <g transform="matrix(1,0,0,1,35.5,85.5)">
            <circle cx="14.5" cy="64.5" r="1.5"/>
        </g>
        <g transform="matrix(1,0,0,1,35.5,79.5)">
            <circle cx="14.5" cy="64.5" r="1.5"/>
        </g>
        <g transform="matrix(1,0,0,1,35.5,73.5)">
            <circle cx="14.5" cy="64.5" r="1.5"/>
        </g>
        <g transform="matrix(1,0,0,1,35.5,67.5)">
            <circle cx="14.5" cy="64.5" r="1.5"/>
        </g>
        <g transform="matrix(1,0,0,1,35.5,61.5)">
            <circle cx="14.5" cy="64.5" r="1.5"/>
        </g>
        <g transform="matrix(1,0,0,1,35.5,55.5)">
            <circle cx="14.5" cy="64.5" r="1.5"/>
        </g>
        <g transform="matrix(1,0,0,1,35.5,49.5)">
            <circle cx="14.5" cy="64.5" r="1.5"/>
        </g>
        <g transform="matrix(1,0,0,1,35.5,43.5)">
            <circle cx="14.5" cy="64.5" r="1.5"/>
        </g>
        <g transform="matrix(1,0,0,1,35.5,37.5)">
            <circle cx="14.5" cy="64.5" r="1.5"/>
        </g>
        <g transform="matrix(1,0,0,1,35.5,31.5)">
            <circle cx="14.5" cy="64.5" r="1.5"/>
        </g>
        <g transform="matrix(1,0,0,1,35.5,25.5)">
            <circle cx="14.5" cy="64.5" r="1.5"/>
        </g>
        <g transform="matrix(1,0,0,1,35.5,19.5)">
            <circle cx="14.5" cy="64.5" r="1.5"/>
        </g>
        <g transform="matrix(1,0,0,1,35.5,13.5)">
            <circle cx="14.5" cy="64.5" r="1.5"/>
        </g>
        <g transform="matrix(1,0,0,1,35.5,7.5)">
            <circle cx="14.5" cy="64.5" r="1.5"/>
        </g>
        <g transform="matrix(1,0,0,1,35.5,1.5)">
            <circle cx="14.5" cy="64.5" r="1.5"/>
        </g>
        <g transform="matrix(1,0,0,1,35.5,-4.5)">
            <circle cx="14.5" cy="64.5" r="1.5"/>
        </g>
        <g transform="matrix(1,0,0,1,35.5,-10.5)">
            <circle cx="14.5" cy="64.5" r="1.5"/>
        </g>
        <g transform="matrix(1,0,0,1,35.5,-16.5)">
            <circle cx="14.5" cy="64.5" r="1.5"/>
        </g>
        <g transform="matrix(1,0,0,1,35.5,-22.5)">
            <circle cx="14.5" cy="64.5" r="1.5"/>
        </g>
        <g transform="matrix(1,0,0,1,35.5,-28.5)">
            <circle cx="14.5" cy="64.5" r="1.5"/>
        </g>
        <g transform="matrix(1,0,0,1,35.5,-34.5)">
            <circle cx="14.5" cy="64.5" r="1.5"/>
        </g>
        <g transform="matrix(1,0,0,1,35.5,-40.5)">
            <circle cx="14.5" cy="64.5" r="1.5"/>
        </g>
        <g transform="matrix(1,0,0,1,35.5,-46.5)">
            <circle cx="14.5" cy="64.5" r="1.5"/>
        </g>
        <g transform="matrix(1,0,0,1,35.5,-52.5)">
            <circle cx="14.5" cy="64.5" r="1.5"/>
        </g>
        <g transform="matrix(1,0,0,1,35.5,-58.5)">
            <circle cx="14.5" cy="64.5" r="1.5"/>
        </g>
        <g transform="matrix(1,0,0,1,35.5,-64.5)">
            <circle cx="14.5" cy="64.5" r="1.5"/>
        </g>
    </g>
</svg>
